<svg version="1.1" id="Uploaded to svgrepo.com" xmlns="http://www.w3.org/2000/svg" xmlns:xlink="http://www.w3.org/1999/xlink" x="0px" y="0px"
	 width="64px" height="64px" viewBox="0 0 64 64" style="enable-background:new 0 0 64 64;" xml:space="preserve">
<style type="text/css">
	.fandom_een{fill:#FF786E;}
	.fandom_twee{fill:#BE5652;}
	.fandom_vijf{fill:#018273;}
	.fandom_zes{fill:#00B3AA;}
	.fandom_elf{fill:#4B322A;}
	.fandom_twaalf{fill:#644638;}
	.fandom_veertien{fill:#EFEAE0;}
	.st0{fill:#6BC4D2;}
	.st1{fill:#508D9B;}
	.st2{fill:#FFC865;}
	.st3{fill:#8579A3;}
	.st4{fill:#BE9148;}
	.st5{fill:#685683;}
	.st6{fill:#AA9991;}
	.st7{fill:#3A3A3A;}
	.st8{fill:#666666;}
	.st9{fill:#4D4D4D;}
	.st10{fill:#CCCCCC;}
	.st11{fill:#808080;}
	.st12{fill:#FFFAFA;}
</style>
<g>
	<g>
		<path class="fandom_zes" d="M32,7C18.193,7,7,18.193,7,32h50C57,18.193,45.807,7,32,7z"/>
		<path class="fandom_vijf" d="M32,57c13.807,0,25-11.193,25-25H7C7,45.807,18.193,57,32,57z"/>
	</g>
	<g>
		<path class="fandom_een" d="M41,44c4.024-0.878,1.4-2.43,0.699-2.796l-0.158-0.079l-5.677-8.921
			c-0.102-0.16-0.156-0.347-0.156-0.537V30.58c0-0.051,0.487-0.591,0.542-0.83l-3.235,2.492c-0.808,0.627-1.013,1.762-0.476,2.631
			l5.76,9.327C39.182,44.249,40.092,44.198,41,44z"/>
		<path class="fandom_twee" d="M44,18c-1.5-0.25-5.5-0.667-7.083-0.667c-1.583,0-3.417,2.167-3.833,3
			c-0.417,0.833-16,5.917-16,5.917c-0.75,0,5.083,8.667,6.75,9.667c1.667,1,6.417,5.667,7.167,6
			c0.602,0.267,3.722,2.089,7.299,2.284l-5.76-9.327c-0.537-0.87-0.332-2.005,0.476-2.631l11.184-8.607
			c0.762-0.147,1.444-0.58,1.885-1.219c0.501-0.724,0.583-1.167,0.583-1.167C46.167,21.083,45.5,18.25,44,18z"/>
		<path class="fandom_veertien" d="M45.863,19.948l-0.7,3.582l-0.762-5.396C45.036,18.458,45.5,19.245,45.863,19.948z M43.47,17.919
			c-0.478-0.068-1.075-0.142-1.72-0.214l0.936,4.705L43.47,17.919z M40.951,17.619c-0.611-0.063-1.238-0.121-1.827-0.169l0.9,4.166
			L40.951,17.619z M38.364,17.394c-0.565-0.038-1.063-0.06-1.433-0.061l0.606,4.29L38.364,17.394z M34.529,22.614l1.245-4.964
			c-0.696,0.359-1.365,0.968-1.872,1.545L34.529,22.614z M32.629,20.661c-0.331,0.18-0.824,0.407-1.435,0.666l0.936,3.082
			L32.629,20.661z M29.253,22.108c-0.359,0.139-0.732,0.281-1.118,0.426l0.743,2.43L29.253,22.108z M40.392,44.111
			C40.595,44.081,40.798,44.044,41,44c0.323-0.071,0.604-0.146,0.846-0.224l-0.538-3.62L40.392,44.111z M38.397,44.206
			c0.456,0.021,0.919,0.015,1.384-0.024l-0.539-3.628L38.397,44.206z M33.29,42.988c0.443,0.181,0.936,0.365,1.465,0.532
			l-0.429-3.285L33.29,42.988z M37.098,40.156l-0.87,3.758c0.469,0.102,0.956,0.183,1.454,0.236L37.098,40.156z M26.502,38.049
			c0.26,0.228,0.523,0.461,0.786,0.696l-0.171-2.883L26.502,38.049z M28.75,40.053c0.449,0.401,0.864,0.769,1.218,1.072
			l-0.472-3.946L28.75,40.053z M31.179,42.003c0.279,0.139,0.753,0.387,1.373,0.667l-0.468-3.485L31.179,42.003z"/>
		<path class="fandom_twaalf" d="M45.583,40.75c-1.352-0.946-5.578-2.042-5.578-2.042l1.536,2.417c0,0,4.042,1.875-0.542,2.875
			s-9.25-1.75-10-2.083c-0.75-0.333-5.5-5-7.167-6c-1.667-1-7.5-9.667-6.75-9.667c0,0,15.583-5.083,16-5.917
			c0.417-0.833,2.25-3,3.833-3C38.5,17.333,42.5,17.75,44,18s2.167,3.083,2.667,3.25c0.5,0.167,1.167-0.667,1.333-1.583
			c0.12-0.658-0.916-4.86-0.916-4.86l-0.667-3.14c0-0.75,0.167-2.833-0.75-3.25c-0.917-0.417-2.75-1.5-4.5-3.083
			c-1.75-1.583-2.042-2.125-3.458-2.125C36.292,3.208,34.917,4.333,34,4c-2.749-0.999-5.688-0.986-7.542-0.998
			C26.132,3,25.294,3.159,25,3c-4.625-2.498-4.664,0.951-5.664,0.739c-0.644,0.405-1.137,0.842-1.502,1.095
			c-0.376,0.26-0.863,4.226-0.779,4.016c-1,0.863-2.765-1.877-7.887,9.734c-2.48,5.622,2.333,11.255,2,18.75
			C10.992,41.26,15,47.75,15,47.75l-1.134,1.449C18.643,54.234,25.15,57,32,57c9.286,0,17.388-5.062,21.7-12.578
			C50.04,41.287,48.323,42.668,45.583,40.75z"/>
		<path class="fandom_elf" d="M47.084,14.806c-0.985,0.831-1.633,1.32-2.501,0.61c-1.816-1.486-2.015-5.605-3.503-4.285
			c-1,0.887-0.252,1.591-2.586,2.75c-4.636,2.301-7.635,2.022-7.556-3.093c0,0-5.18-0.133-7.365-4.847
			c-1.073-2.316-3.133-1.967-4.238-2.203c-0.644,0.405-1.284,0.708-1.502,1.095c-0.572,1.014-0.743,3.491-0.789,4.032
			c0,0-5.362,13.623-8.387,15.404c0.66,3.897,2.732,8.052,2.509,13.065C10.992,41.26,15,47.75,15,47.75l-1.134,1.449
			c1.799,1.897,3.888,3.516,6.203,4.775c-0.663-2.427-1.744-7.25-0.069-6.891c2.333,0.5,3.5-1.5,4.417-1.75
			c0.917-0.25,2.333,2.917,6.417,5.167c4.083,2.25,7,1.417,9.5-0.25c2.5-1.667,3.833-7.167,3.75-7.833
			c-0.066-0.528-2.326-1.397-2.542-1.292c0,0,4.042,1.875-0.542,2.875s-9.25-1.75-10-2.083c-0.75-0.333-5.5-5-7.167-6
			c-1.667-1-7.5-9.667-6.75-9.667c0,0,15.583-5.083,16-5.917c0.417-0.833,2.25-3,3.833-3C38.5,17.333,42.5,17.75,44,18
			s2.167,3.083,2.667,3.25c0.5,0.167,1.167-0.667,1.333-1.583C48.12,19.009,47.084,14.806,47.084,14.806z"/>
	</g>
</g>
</svg>